<svg id="visual" viewBox="0 0 900 600" width="900" height="600" xmlns="http://www.w3.org/2000/svg" xmlns:xlink="http://www.w3.org/1999/xlink" version="1.1"><rect x="0" y="0" width="900" height="600" fill="#101000"></rect><path d="M0 275L13.7 275.8C27.3 276.7 54.7 278.3 82 268.2C109.3 258 136.7 236 163.8 214.2C191 192.3 218 170.7 245.2 171.7C272.3 172.7 299.7 196.3 327 207.7C354.3 219 381.7 218 409 213.5C436.3 209 463.7 201 491 200.3C518.3 199.7 545.7 206.3 573 207.7C600.3 209 627.7 205 654.8 218.2C682 231.3 709 261.7 736.2 264.7C763.3 267.7 790.7 243.3 818 235.8C845.3 228.3 872.7 237.7 886.3 242.3L900 247L900 601L886.3 601C872.7 601 845.3 601 818 601C790.7 601 763.3 601 736.2 601C709 601 682 601 654.8 601C627.7 601 600.3 601 573 601C545.7 601 518.3 601 491 601C463.7 601 436.3 601 409 601C381.7 601 354.3 601 327 601C299.7 601 272.3 601 245.2 601C218 601 191 601 163.8 601C136.7 601 109.3 601 82 601C54.7 601 27.3 601 13.7 601L0 601Z" fill="#fa7268"></path><path d="M0 238L13.7 249.8C27.3 261.7 54.7 285.3 82 294.8C109.3 304.3 136.7 299.7 163.8 288.3C191 277 218 259 245.2 262.2C272.3 265.3 299.7 289.7 327 285.7C354.3 281.7 381.7 249.3 409 241.3C436.3 233.3 463.7 249.7 491 259.3C518.3 269 545.7 272 573 275.5C600.3 279 627.7 283 654.8 282C682 281 709 275 736.2 263.2C763.3 251.3 790.7 233.7 818 230.3C845.3 227 872.7 238 886.3 243.5L900 249L900 601L886.3 601C872.7 601 845.3 601 818 601C790.7 601 763.3 601 736.2 601C709 601 682 601 654.8 601C627.7 601 600.3 601 573 601C545.7 601 518.3 601 491 601C463.7 601 436.3 601 409 601C381.7 601 354.3 601 327 601C299.7 601 272.3 601 245.2 601C218 601 191 601 163.8 601C136.7 601 109.3 601 82 601C54.7 601 27.3 601 13.7 601L0 601Z" fill="#f36567"></path><path d="M0 282L13.7 290.7C27.3 299.3 54.7 316.7 82 323.3C109.3 330 136.7 326 163.8 320.5C191 315 218 308 245.2 311.8C272.3 315.7 299.7 330.3 327 330.2C354.3 330 381.7 315 409 310.2C436.3 305.3 463.7 310.7 491 312.2C518.3 313.7 545.7 311.3 573 304.7C600.3 298 627.7 287 654.8 279.5C682 272 709 268 736.2 284.5C763.3 301 790.7 338 818 357.5C845.3 377 872.7 379 886.3 380L900 381L900 601L886.3 601C872.7 601 845.3 601 818 601C790.7 601 763.3 601 736.2 601C709 601 682 601 654.8 601C627.7 601 600.3 601 573 601C545.7 601 518.3 601 491 601C463.7 601 436.3 601 409 601C381.7 601 354.3 601 327 601C299.7 601 272.3 601 245.2 601C218 601 191 601 163.8 601C136.7 601 109.3 601 82 601C54.7 601 27.3 601 13.7 601L0 601Z" fill="#eb5967"></path><path d="M0 332L13.7 345.3C27.3 358.7 54.7 385.3 82 389C109.3 392.7 136.7 373.3 163.8 377.7C191 382 218 410 245.2 423.5C272.3 437 299.7 436 327 417.5C354.3 399 381.7 363 409 354.5C436.3 346 463.7 365 491 374.5C518.3 384 545.7 384 573 373.5C600.3 363 627.7 342 654.8 349.8C682 357.7 709 394.3 736.2 412.8C763.3 431.3 790.7 431.7 818 432.3C845.3 433 872.7 434 886.3 434.5L900 435L900 601L886.3 601C872.7 601 845.3 601 818 601C790.7 601 763.3 601 736.2 601C709 601 682 601 654.8 601C627.7 601 600.3 601 573 601C545.7 601 518.3 601 491 601C463.7 601 436.3 601 409 601C381.7 601 354.3 601 327 601C299.7 601 272.3 601 245.2 601C218 601 191 601 163.8 601C136.7 601 109.3 601 82 601C54.7 601 27.3 601 13.7 601L0 601Z" fill="#e34c67"></path><path d="M0 459L13.7 453.5C27.3 448 54.7 437 82 426C109.3 415 136.7 404 163.8 402C191 400 218 407 245.2 405C272.3 403 299.7 392 327 400.5C354.3 409 381.7 437 409 453.5C436.3 470 463.7 475 491 471.7C518.3 468.3 545.7 456.7 573 454.7C600.3 452.7 627.7 460.3 654.8 463C682 465.7 709 463.3 736.2 461.2C763.3 459 790.7 457 818 451C845.3 445 872.7 435 886.3 430L900 425L900 601L886.3 601C872.7 601 845.3 601 818 601C790.7 601 763.3 601 736.2 601C709 601 682 601 654.8 601C627.7 601 600.3 601 573 601C545.7 601 518.3 601 491 601C463.7 601 436.3 601 409 601C381.7 601 354.3 601 327 601C299.7 601 272.3 601 245.2 601C218 601 191 601 163.8 601C136.7 601 109.3 601 82 601C54.7 601 27.3 601 13.7 601L0 601Z" fill="#da3f67"></path><path d="M0 479L13.7 477.2C27.3 475.3 54.7 471.7 82 472.3C109.3 473 136.7 478 163.8 474.8C191 471.7 218 460.3 245.2 456.2C272.3 452 299.7 455 327 454.3C354.3 453.7 381.7 449.3 409 454.3C436.3 459.3 463.7 473.7 491 485.7C518.3 497.7 545.7 507.3 573 513C600.3 518.7 627.7 520.3 654.8 520.8C682 521.3 709 520.7 736.2 519.2C763.3 517.7 790.7 515.3 818 508.8C845.3 502.3 872.7 491.7 886.3 486.3L900 481L900 601L886.3 601C872.7 601 845.3 601 818 601C790.7 601 763.3 601 736.2 601C709 601 682 601 654.8 601C627.7 601 600.3 601 573 601C545.7 601 518.3 601 491 601C463.7 601 436.3 601 409 601C381.7 601 354.3 601 327 601C299.7 601 272.3 601 245.2 601C218 601 191 601 163.8 601C136.7 601 109.3 601 82 601C54.7 601 27.3 601 13.7 601L0 601Z" fill="#d03267"></path><path d="M0 527L13.7 532.7C27.3 538.3 54.7 549.7 82 551C109.3 552.3 136.7 543.7 163.8 540.8C191 538 218 541 245.2 545C272.3 549 299.7 554 327 552C354.3 550 381.7 541 409 540.2C436.3 539.3 463.7 546.7 491 547C518.3 547.3 545.7 540.7 573 534.3C600.3 528 627.7 522 654.8 520.2C682 518.3 709 520.7 736.2 520.2C763.3 519.7 790.7 516.3 818 512.2C845.3 508 872.7 503 886.3 500.5L900 498L900 601L886.3 601C872.7 601 845.3 601 818 601C790.7 601 763.3 601 736.2 601C709 601 682 601 654.8 601C627.7 601 600.3 601 573 601C545.7 601 518.3 601 491 601C463.7 601 436.3 601 409 601C381.7 601 354.3 601 327 601C299.7 601 272.3 601 245.2 601C218 601 191 601 163.8 601C136.7 601 109.3 601 82 601C54.7 601 27.3 601 13.7 601L0 601Z" fill="#c62368"></path></svg>